<mxfile host="app.diagrams.net" modified="2024-06-17T11:38:46.742Z" agent="Mozilla/5.0 (Macintosh; Intel Mac OS X 10_15_7) AppleWebKit/537.36 (KHTML, like Gecko) Chrome/125.0.0.0 Safari/537.36" version="24.4.0" etag="zAjc4rj96UnLuJFm0bax" type="github">
  <diagram name="Page-1" id="CXhJXuUDefiN3Qkow11O">
    <mxGraphModel>
      <root>
        <mxCell id="0" />
        <mxCell id="1" parent="0" />
      </root>
    </mxGraphModel>
  </diagram>
</mxfile>
